<?xml version="1.0" standalone="no"?><!DOCTYPE svg PUBLIC "-//W3C//DTD SVG 1.1//EN" "http://www.w3.org/Graphics/SVG/1.1/DTD/svg11.dtd"><svg t="1638186849563" class="icon" viewBox="0 0 1024 1024" version="1.1" xmlns="http://www.w3.org/2000/svg" p-id="9670" xmlns:xlink="http://www.w3.org/1999/xlink" width="200" height="200"><defs><style type="text/css"></style></defs><path d="M810.1888 102.4v358.6048h-54.272V156.6208H105.472v758.9376h388.4544v54.272H51.2V102.4h758.9888z m-54.272 379.4944a108.4416 108.4416 0 0 1 63.9488 195.9936l-2.56 1.6896 36.7104 73.3696H972.8v216.832h-433.664v-216.832h118.6816l36.7616-73.3696-2.5088-1.6384a108.4416 108.4416 0 0 1-44.1856-78.848l-0.3584-8.8064c0-59.904 48.5376-108.3904 108.4416-108.3904z m0 196.096l-64.512 129.1776h-98.0992v108.3904h325.2736v-108.3904h-98.048l-64.5632-129.1264z m-289.5872 74.9568v57.856H213.7088v-57.856h252.6208z m0-162.6624v57.856H213.7088v-57.856h252.6208z m289.6384-54.1696a54.2208 54.2208 0 0 0-16.7424 105.7792l16.7424 5.376 16.7424-5.376a54.272 54.272 0 0 0 37.0688-45.2096l0.4096-6.4c0-29.9008-24.32-54.1696-54.272-54.1696zM466.3296 427.6736v57.856H213.7088v-57.856h252.6208z m0-176.128v57.8048H213.7088v-57.856h252.6208z" p-id="9671"></path></svg>