<?xml version="1.0" standalone="no"?><!DOCTYPE svg PUBLIC "-//W3C//DTD SVG 1.1//EN" "http://www.w3.org/Graphics/SVG/1.1/DTD/svg11.dtd"><svg t="1637846000606" class="icon" viewBox="0 0 1024 1024" version="1.1" xmlns="http://www.w3.org/2000/svg" p-id="4059" xmlns:xlink="http://www.w3.org/1999/xlink" width="200" height="200"><defs><style type="text/css"></style></defs><path d="M857.5 103.5h-691c-35.3 0-64 28.7-64 64v689c0 35.3 28.7 64 64 64h691c35.3 0 64-28.7 64-64v-689c0-35.3-28.7-64-64-64zM738.4 338.9C733.5 457.4 635.9 552 516.2 552c-118.6 0-215.5-92.8-222-209.7-24.5-7.5-42.4-30.4-42.4-57.4 0-33.1 26.9-60 60-60s60 26.9 60 60c0 23.3-13.3 43.5-32.8 53.5 4.6 93.9 82.2 168.6 177.2 168.6 93.9 0 170.7-72.9 177-165.2-23.8-8-40.9-30.4-40.9-56.9 0-33.1 26.9-60 60-60s60 26.9 60 60c-0.1 23.7-13.9 44.3-33.9 54z" p-id="4060"></path></svg>
