<?xml version="1.0" standalone="no"?><!DOCTYPE svg PUBLIC "-//W3C//DTD SVG 1.1//EN" "http://www.w3.org/Graphics/SVG/1.1/DTD/svg11.dtd"><svg t="1637845931315" class="icon" viewBox="0 0 1024 1024" version="1.1" xmlns="http://www.w3.org/2000/svg" p-id="2335" xmlns:xlink="http://www.w3.org/1999/xlink" width="200" height="200"><defs><style type="text/css"></style></defs><path d="M689.4 637.7c-72.9 0-132.2-59.3-132.2-132.1 0-72.9 59.3-132.2 132.2-132.2s132.2 59.3 132.2 132.2c0 72.8-59.3 132.1-132.2 132.1z m0-210.8c-43.3 0-78.6 35.3-78.6 78.6s35.3 78.6 78.6 78.6 78.6-35.2 78.6-78.6-35.2-78.6-78.6-78.6zM877.3 977.1H501.6c-32.7 0-62.7-17.6-80.3-47-18.7-31.3-19.7-69-2.6-100.8 50.7-94.2 145.4-152.7 247-152.7h47.5c101.6 0 196.2 58.5 246.9 152.7 17.1 31.8 16.2 69.5-2.6 100.9-17.5 29.4-47.5 46.9-80.2 46.9z m-211.6-247c-81.9 0-158.4 47.7-199.8 124.5-8.1 15-7.6 33 1.4 48 7.8 13.1 20.6 20.9 34.3 20.9h375.7c13.7 0 26.4-7.8 34.2-20.9 9-15 9.5-33 1.4-48-41.3-76.7-117.9-124.5-199.7-124.5h-47.5zM335.5 776.3H220.7c-14.8 0-26.8-12-26.8-26.8s12-26.8 26.8-26.8h114.8c14.8 0 26.8 12 26.8 26.8s-12 26.8-26.8 26.8zM450.3 403.2H220.7c-14.8 0-26.8-12-26.8-26.8s12-26.8 26.8-26.8h229.6c14.8 0 26.8 12 26.8 26.8s-12 26.8-26.8 26.8zM421.5 589.7H220.7c-14.8 0-26.8-12-26.8-26.8s12-26.8 26.8-26.8h200.9c14.8 0 26.8 12 26.8 26.8s-12 26.8-26.9 26.8z" p-id="2336"></path><path d="M464.7 977.1H136.5c-46.4 0-84.2-37.8-84.2-84.2V146.8c0-46.4 37.8-84.2 84.2-84.2h405.3c7.9 0 15.4 3.5 20.5 9.6l168.6 200.9c4.1 4.8 6.3 10.9 6.3 17.2v86.1c0 14.8-12 26.8-26.8 26.8s-26.8-12-26.8-26.8v-76.3L529.3 116.2H136.5c-16.9 0-30.6 13.7-30.6 30.6V893c0 16.9 13.7 30.6 30.6 30.6h328.2c14.8 0 26.8 12 26.8 26.8s-12 26.7-26.8 26.7z" fill="#000000" p-id="2337"></path><path d="M710.4 317.1H599.2c-46.4 0-84.2-37.8-84.2-84.2V89.4c0-14.8 12-26.8 26.8-26.8s26.8 12 26.8 26.8v143.5c0 16.9 13.7 30.6 30.6 30.6h111.2c14.8 0 26.8 12 26.8 26.8s-12 26.8-26.8 26.8z" fill="#000000" p-id="2338"></path></svg>
