<?xml version="1.0" standalone="no"?><!DOCTYPE svg PUBLIC "-//W3C//DTD SVG 1.1//EN" "http://www.w3.org/Graphics/SVG/1.1/DTD/svg11.dtd"><svg t="1638186674583" class="icon" viewBox="0 0 1024 1024" version="1.1" xmlns="http://www.w3.org/2000/svg" p-id="5429" xmlns:xlink="http://www.w3.org/1999/xlink" width="200" height="200"><defs><style type="text/css"></style></defs><path d="M512 938.666667C276.352 938.666667 85.333333 747.648 85.333333 512S276.352 85.333333 512 85.333333s426.666667 191.018667 426.666667 426.666667-191.018667 426.666667-426.666667 426.666667z m-156.629333-413.696c-1.706667 36.266667 1.578667 72.405333 5.034666 108.544 0.213333 2.56 1.152 3.157333 3.413334 3.413333 17.322667 2.304 34.688 4.352 52.138666 5.418667 41.130667 2.602667 82.261333 5.930667 123.562667 3.626666 23.466667-1.28 46.933333-2.048 70.314667-4.053333a878.506667 878.506667 0 0 0 99.413333-13.312c40.874667-8.277333 81.365333-18.133333 119.466667-36.053333 17.322667-8.106667 33.706667-17.706667 47.530666-31.402667 10.154667-10.026667 17.408-21.632 17.493334-36.693333a380.586667 380.586667 0 0 0-1.92-40.106667 384.938667 384.938667 0 0 0-20.522667-93.013333c-24.917333-69.034667-64.426667-127.530667-120.576-173.653334a378.453333 378.453333 0 0 0-164.309333-79.488c-21.333333-4.48-42.922667-6.144-64.597334-7.68-24.448-1.749333-45.397333 5.12-63.488 21.930667-21.12 19.498667-35.712 43.690667-47.872 69.674667-28.458667 60.885333-41.514667 126.037333-49.749333 192.341333a649.173333 649.173333 0 0 0-5.333333 110.506667z m152.32-214.613334c40.917333 1.28 75.52 13.824 106.410666 36.522667a184.576 184.576 0 0 1 73.130667 111.445333c2.901333 12.970667 4.138667 26.112 4.394667 39.338667 0.213333 8.917333-4.693333 15.445333-11.178667 20.906667-13.098667 11.008-28.586667 17.109333-44.8 21.674666-31.573333 8.832-63.829333 13.909333-96.64 15.616-21.333333 1.109333-42.666667 1.493333-64 0.426667-8.192-0.426667-16.426667-1.024-24.618667-1.365333-2.56-0.085333-3.413333-0.853333-3.584-3.456-0.981333-18.517333-2.432-37.034667-2.133333-55.552 0.682667-43.776 4.010667-87.253333 16.938667-129.450667 4.266667-14.037333 9.514667-27.733333 17.92-39.936 7.381333-10.666667 16.128-18.645333 28.16-16.213333z" p-id="5430" fill="#000000"></path></svg>