<?xml version="1.0" standalone="no"?><!DOCTYPE svg PUBLIC "-//W3C//DTD SVG 1.1//EN" "http://www.w3.org/Graphics/SVG/1.1/DTD/svg11.dtd"><svg t="1638186571060" class="icon" viewBox="0 0 1024 1024" version="1.1" xmlns="http://www.w3.org/2000/svg" p-id="2922" xmlns:xlink="http://www.w3.org/1999/xlink" width="200" height="200"><defs><style type="text/css"></style></defs><path d="M877.707123 387.829979l-21.208021-4.184299c-4.919033-0.873903-6.161327-2.529613-6.145977-1.873674-0.047072-0.655939 1.001817-3.372817 3.875261-7.494695l13.789051-19.392676c27.637454-39.660278 22.649859-97.496521-11.515265-131.629923L814.56606 181.251064c-32.946366-32.915667-93.278453-38.349423-131.564431-11.648294l-19.688411 13.709233c-3.794419 2.654456-6.471388 3.341095-6.456039 3.77907-0.484024-0.406253-2.041496-2.716878-2.931772-7.65126l-3.854794-27.544333c-8.494465-47.561225-52.992935-87.721901-101.304244-87.721901l-59.396785 0c-48.311309 0-92.811826 40.160675-101.30629 87.721901l-3.919263 24.935925c-0.890276 4.934382-2.451842 8.720615-1.951445 8.720615-0.983397 0-3.654226 0.019443-7.447623-2.603291l-18.316158-12.403494c-38.302351-26.731828-98.667184-21.113877-131.61355 11.83249l-42.017976 42.094724c-34.148751 34.164101-39.255049 92.046393-11.632945 131.644249l12.55392 18.073634c2.904143 4.1536 3.403516 6.569626 3.77907 6.475482-0.421602 0.468674-2.716878 2.035356-7.698333 2.910283l-27.848255 4.249791c-47.577598 8.462742-86.171592 55.914474-86.171592 104.256482l0 59.366086c0 48.311309 38.579667 89.864704 86.140892 98.359168l25.415856 4.1536c4.965082 0.873903 8.281617 2.373047 8.312316 1.936095 0.047072 0.624217 0.065492 3.372817-2.807952 7.463995l-13.254885 19.392676c-27.652803 39.660278-22.398126 97.464799 11.781324 131.629923l42.069141 42.002626c32.931017 32.915667 93.360318 38.380122 131.615597 11.648294l19.144012-13.302981c3.794419-2.654456 6.472412-3.341095 6.488785-3.77907 0.468674 0.436952 2.034333 2.716878 2.923586 7.65126l4.452405 19.049868c8.494465 47.561225 52.997028 82.170464 101.308337 82.170464l59.396785 0c48.311309 0 92.811826-34.609239 101.30629-82.170464l4.387937-21.62553c0.890276-4.934382 2.451842-5.7694 1.951445-5.7694 0.983397 0 3.654226 1.456165 7.447623 4.078899l20.48659 14.640442c16.613376 11.585873 36.740786 17.891486 58.179051 17.891486 28.028357 0 54.790884-10.618848 73.41915-29.262464l42.002626-41.956577c34.17945-34.164101 39.301098-91.946109 11.648294-131.606387l-14.474666-20.75572c-2.7793-3.997034-3.341095-7.333012-3.762697-6.458085 0.406253-0.468674 2.716878-2.057869 7.65126-2.932796l18.667152-4.089132c47.561225-8.494465 80.546477-52.993958 80.546477-101.305267l0-59.366086C958.222901 440.794261 925.221276 396.292722 877.707123 387.829979zM894.266263 548.502355c0 17.08205-11.031241 35.351136-27.832905 38.349423l-20.802792 4.091178c-26.279526 4.684696-45.338604 19.611663-54.160527 40.941458-8.837272 21.329794-4.619204 46.093804 10.651594 68.016093l14.741749 20.766976c9.774621 13.990642 7.79964 37.724183-4.270257 49.810453l-41.951461 42.002626c-11.570523 11.585873-36.317137 13.740956-49.761334 4.403287l-20.469194-14.272052c-13.928221-9.712199-29.143761-14.833847-44.008306-14.833847-32.41527 0-58.503439 24.077372-64.905242 59.959603l-4.38589 18.675338c-2.998287 16.800641-21.280676 29.456892-38.347376 29.456892l-59.396785 0c-17.066701 0-35.351136-12.655228-38.349423-29.456892l-4.450359-22.001083c-6.401804-35.850509-32.494065-58.452273-64.909335-58.452273-14.864546 0-30.089295 5.859451-44.001143 15.57165l-19.127639 13.672394c-13.491269 9.400091-38.208207 7.366781-49.810453-4.219091l-42.002626-41.910529c-12.069897-12.085246-14.177907-35.773761-4.403287-49.76338l13.521968-19.370163c15.255449-21.89159 18.940374-46.676066 10.118452-68.004837-8.837272-21.329794-28.964682-36.250622-55.244208-40.935318l-27.551496-4.15053c-16.800641-2.998287-33.426297-18.317181-33.426297-35.399231l0-59.366086c0-17.08205 16.610306-38.298258 33.458019-41.296545l25.712615-4.246721c26.279526-4.652973 47.473221-19.580964 56.326866-40.879036 8.837272-21.329794 5.686513-46.124504-9.584286-68.016093l-12.286838-18.050098c-9.759271-13.990642-7.517207-37.724183 4.536316-49.810453l42.069141-42.002626c11.617595-11.585873 36.415374-13.740956 49.858548-4.403287l18.332531 12.772908c13.928221 9.712199 29.160133 14.833847 44.025703 14.833847 32.41527 0 58.511625-24.109094 64.913429-59.959603l3.921309-27.887141c2.998287-16.800641 21.284769-35.007305 38.35147-35.007305l59.396785 0c17.066701 0 35.351136 18.206664 38.349423 35.007305l3.856841 24.593118c6.401804 35.850509 32.494065 61.403488 64.909335 61.403488 14.864546 0 30.089295-4.383844 44.001143-14.096043l19.705807-13.340843c13.491269-9.368368 38.208207-6.998391 49.825802 4.587482l42.002626 42.094724c12.069897 12.054547 14.162558 35.865859 4.403287 49.856501l-13.521968 19.416212c-15.270798 21.922289-18.955724 46.730301-10.102079 68.059072 8.837272 21.298072 28.980032 36.231179 55.197136 40.884153l19.073404 4.187369c16.785292 2.998287 27.801183 21.269419 27.801183 38.35147L894.26524 548.502355z" p-id="2923"></path><path d="M519.066953 316.878021c-112.361067 0-203.783243 91.437525-203.783243 203.799616s91.422176 203.799616 203.783243 203.799616 203.783243-91.437525 203.783243-203.799616S631.429043 316.878021 519.066953 316.878021zM519.066953 660.520615c-77.104075 0-139.826606-62.738903-139.826606-139.842978s62.723553-139.842978 139.826606-139.842978 139.826606 62.738903 139.826606 139.842978S596.171028 660.520615 519.066953 660.520615z" p-id="2924"></path></svg>